<svg xmlns="http://www.w3.org/2000/svg" width="1697" height="1697" viewBox="0 0 1697 1697" version="1.1">
	<path d="M 828 57.612 C 693.961 62.190, 571.738 96.332, 458.500 160.829 C 275.348 265.145, 140.701 438.733, 85.657 641.500 C 72.940 688.349, 64.816 735.388, 60.357 788 C 58.211 813.311, 57.904 879.091, 59.815 904 C 70.649 1045.238, 113.375 1171.126, 189.462 1286 C 260.256 1392.884, 353.253 1478.967, 466.500 1542.443 C 483.991 1552.247, 519.863 1569.744, 540 1578.294 C 610.846 1608.376, 686.235 1628.068, 762.500 1636.415 C 795.033 1639.975, 806.227 1640.497, 850 1640.497 C 893.773 1640.497, 904.967 1639.975, 937.500 1636.415 C 1078.195 1621.017, 1211.254 1568.291, 1325 1482.862 C 1386.138 1436.945, 1437.829 1385.306, 1483.523 1324.500 C 1568.477 1211.449, 1621.249 1078.449, 1636.994 937.712 C 1640.589 905.572, 1641.451 888.086, 1641.416 848 C 1641.378 805.816, 1640.150 785.173, 1635.493 748.500 C 1613.749 577.251, 1536.962 419, 1415.508 295.135 C 1277.822 154.715, 1096.502 71.526, 901 59.080 C 883.350 57.957, 842.162 57.128, 828 57.612 M 835.619 366.237 C 824.164 462.632, 814.483 542.809, 814.106 544.409 C 813.454 547.175, 810.525 543.957, 754.059 478.409 C 721.410 440.509, 694.060 408.825, 693.281 408 C 691.557 406.174, 690.206 402.596, 724.405 490.406 C 739.593 529.405, 751.903 561.430, 751.760 561.574 C 751.545 561.788, 638.468 440.943, 624.190 425.240 L 619.880 420.500 622.583 426 C 624.070 429.025, 638.332 456.700, 654.278 487.500 L 683.269 543.500 686.731 585.500 C 688.635 608.600, 690.371 627.684, 690.588 627.908 C 690.805 628.132, 701.674 627.743, 714.741 627.043 C 741.003 625.636, 742.702 625.819, 753.475 631.217 C 767.718 638.353, 778.903 648.646, 788.629 663.566 C 803.715 686.711, 810.467 712.811, 812.566 756.101 L 813.225 769.702 789.363 770.308 C 756.451 771.144, 733.273 774.523, 712.144 781.564 C 698.033 786.267, 685.521 792.932, 677.960 799.774 C 672.052 805.121, 666 813.052, 666 815.447 C 666 816.028, 668.138 817.621, 670.750 818.986 C 673.362 820.352, 681.575 825.498, 689 830.423 C 705.017 841.046, 720.045 855.313, 724.310 863.946 C 727.177 869.751, 727.961 878.335, 725.965 882.066 C 724.952 883.958, 725.585 884, 755.465 884 L 786 884 786 886.823 C 786 896.913, 781.841 1010.493, 781.457 1010.876 C 780.186 1012.147, 737.773 981.225, 716.403 963.448 C 690.496 941.896, 661.417 914.290, 640.541 891.428 C 564.610 808.275, 520.786 719.129, 512.022 630 C 510.568 615.214, 510.568 580.786, 512.022 566 C 523.912 445.078, 599.550 326.180, 737.143 212.125 C 746.847 204.081, 754.658 197.361, 754.501 197.191 C 754.121 196.780, 720.675 213.534, 694.500 227.246 C 467.556 346.138, 306.187 466.461, 242.602 564.196 C 226.401 589.098, 212.229 623.598, 198.523 671.500 C 188.415 706.827, 181.687 741.223, 177.300 780 C 174.735 802.670, 174.746 870.662, 177.319 894 C 188.155 992.320, 221.206 1081.535, 279.751 1170.500 C 337.432 1258.153, 410.878 1341.456, 483.506 1401.604 C 525.584 1436.451, 567.443 1462.713, 599.888 1474.620 L 606.500 1477.047 602.944 1473.773 C 600.989 1471.973, 591.314 1463.263, 581.444 1454.418 C 525.658 1404.421, 469.238 1345.810, 430.873 1298 C 395.976 1254.511, 372.825 1217.148, 360.520 1184.458 C 358 1177.762, 353 1158.820, 353 1155.969 C 353 1154.492, 354.901 1154.978, 365.750 1159.232 C 413.005 1177.759, 460.952 1193.695, 481 1197.536 C 484.383 1198.184, 484.304 1198.068, 478.654 1194.067 C 427.279 1157.690, 369.253 1102.697, 332.643 1055.687 C 291.430 1002.768, 266.065 950.402, 257.520 900.597 C 250.473 859.525, 254.884 821.694, 271.530 780.457 C 291.520 730.933, 314.792 697.018, 339.870 680.862 C 351.864 673.136, 358.424 671.490, 377 671.548 C 391.086 671.592, 393.237 671.842, 400.578 674.287 C 452.556 691.603, 459.651 760.615, 421.368 876.500 C 416.228 892.060, 405.029 922.508, 400.293 933.801 C 399.879 934.787, 400.442 934.917, 402.624 934.338 C 407.294 933.098, 455.556 933.464, 467.500 934.830 C 547.725 944.006, 599.795 973.881, 625.837 1025.675 C 645.715 1065.212, 648.360 1119.708, 633.459 1182.769 C 632.107 1188.494, 631 1193.399, 631 1193.670 C 631 1193.940, 634.748 1192.119, 639.330 1189.621 C 649.956 1183.829, 670.096 1175.040, 683.171 1170.489 C 726.025 1155.572, 763.145 1155.124, 786.840 1169.238 C 806.987 1181.238, 819.279 1202.304, 825.200 1234.980 C 827.994 1250.396, 828.204 1286.327, 825.630 1308.500 C 822.702 1333.727, 814.287 1378.639, 809.133 1396.548 C 808.362 1399.225, 809.040 1401.048, 814.714 1411.548 C 831.485 1442.588, 845.826 1478.262, 851.007 1501.837 C 852.015 1506.422, 853.047 1510.380, 853.299 1510.632 C 853.552 1510.885, 854.082 1508.483, 854.478 1505.296 C 856.780 1486.743, 874.094 1443.387, 891.875 1411.643 L 899.077 1398.787 894.585 1379.643 C 879.840 1316.800, 875.806 1269.731, 882.041 1233.261 C 886.559 1206.830, 897.047 1186.127, 911.869 1174.379 C 937.447 1154.106, 974.982 1152.059, 1025 1168.211 C 1039.712 1172.962, 1062.089 1182.316, 1073.833 1188.624 C 1080.303 1192.099, 1082.042 1192.698, 1081.610 1191.300 C 1079.695 1185.105, 1075.655 1166.326, 1073.499 1153.600 C 1061.419 1082.266, 1074.610 1027.242, 1112.962 988.990 C 1143.092 958.939, 1185.899 941.178, 1246 933.791 C 1252.522 932.989, 1268.296 932.500, 1287.637 932.500 L 1318.774 932.500 1316.766 927.500 C 1283.693 845.154, 1268.865 782.192, 1272.785 740.751 C 1275.153 715.723, 1281.261 700.462, 1293.896 688 C 1306.909 675.165, 1321.021 669.889, 1342.500 669.829 C 1361.462 669.775, 1371.046 672.544, 1385.262 682.184 C 1403.889 694.814, 1422.235 718.715, 1438.850 752 C 1459.306 792.977, 1467.404 820.790, 1468.695 854.500 C 1470.978 914.105, 1447.487 976.333, 1397.840 1042.191 C 1381.711 1063.588, 1366.906 1080.263, 1341.584 1105.553 C 1308.978 1138.118, 1281.426 1161.694, 1247.127 1186.376 C 1238.610 1192.505, 1234.509 1196, 1235.834 1196 C 1243.878 1196, 1299.300 1178.428, 1344.421 1161.572 C 1357.028 1156.862, 1367.467 1153.134, 1367.620 1153.287 C 1367.772 1153.439, 1367.056 1157.375, 1366.029 1162.032 C 1356.647 1204.542, 1321.056 1260.390, 1259.864 1328.623 C 1224.869 1367.644, 1158.973 1431.256, 1116.218 1467.289 C 1111.663 1471.128, 1108.114 1474.447, 1108.332 1474.665 C 1109.304 1475.637, 1127.894 1467.951, 1142.500 1460.539 C 1218.329 1422.055, 1312.052 1338.679, 1391.530 1239 C 1423.871 1198.439, 1450.894 1159.393, 1471.691 1123.172 C 1551.775 983.693, 1571.578 832.037, 1529.494 680.500 C 1517.376 636.866, 1502.316 598.093, 1488.322 574.500 C 1430.913 477.712, 1270.538 357.771, 1035 235.470 C 1008.681 221.804, 962.851 199.113, 957 196.851 C 954.814 196.006, 954.688 196.064, 956 197.315 C 956.825 198.102, 963.575 203.609, 971 209.553 C 1082.025 298.429, 1155.794 393.174, 1187.023 487 C 1199.990 525.960, 1205.208 557.380, 1205.208 596.500 C 1205.208 625.765, 1202.344 649.675, 1195.506 677.500 C 1170.334 779.923, 1095.615 882.871, 982.550 970.912 C 963.345 985.866, 927.434 1010.845, 926.564 1009.854 C 926.393 1009.659, 925.517 986.325, 924.618 958 C 923.719 929.675, 922.704 901.212, 922.363 894.750 L 921.743 883 953.407 883 L 985.070 883 983.905 880.823 C 981.868 877.016, 982.580 868.761, 985.433 863.133 C 991.863 850.443, 1017.354 829.472, 1040.750 817.625 C 1043.638 816.163, 1046 814.587, 1046 814.123 C 1046 813.659, 1044.831 811.529, 1043.403 809.390 C 1030.578 790.186, 1002.412 777.716, 957.848 771.513 C 944.223 769.617, 908.838 767.839, 901.009 768.657 L 895 769.285 895 757.748 C 895 751.403, 895.458 741.552, 896.019 735.856 C 901.169 683.493, 921.589 646.660, 954.472 630.419 C 966.891 624.284, 968.587 624.091, 995.931 625.700 C 1009.282 626.485, 1020.325 626.986, 1020.470 626.814 C 1020.615 626.641, 1022.318 607.561, 1024.255 584.414 L 1027.776 542.329 1057.998 485.414 C 1074.620 454.111, 1089.348 426.475, 1090.726 424 C 1093.124 419.694, 1092.887 419.846, 1085.243 427.500 C 1080.849 431.900, 1050.550 463.400, 1017.911 497.500 C 985.271 531.600, 958.205 559.653, 957.762 559.840 C 956.795 560.250, 954.553 565.955, 989.991 477.817 C 1005.872 438.318, 1018.726 406, 1018.555 406 C 1018.384 406, 992.202 438.833, 960.372 478.963 C 916.715 534.005, 902.331 551.505, 901.810 550.213 C 901.430 549.271, 891.400 468.953, 879.520 371.730 C 867.641 274.506, 857.589 194.063, 857.183 192.967 C 856.761 191.826, 847.542 265.901, 835.619 366.237" stroke="none" fill="black" fill-rule="evenodd"/>
</svg>